HIERARCHY
ROOT Hips
{
 OFFSET 0.000000 0.000000 0.000000
 CHANNELS 6 Xposition Yposition Zposition Yrotation Xrotation Zrotation
 JOINT Chest
 {
  OFFSET 0.000000 9.585900 0.002600
  CHANNELS 3 Yrotation Xrotation Zrotation
  JOINT Chest2
  {
   OFFSET 0.000000 9.601200 -0.005300
   CHANNELS 3 Yrotation Xrotation Zrotation
   JOINT Chest3
   {
    OFFSET 0.000000 9.561800 0.000000
    CHANNELS 3 Yrotation Xrotation Zrotation
    JOINT Chest4
    {
     OFFSET 0.000000 9.552100 0.000000
     CHANNELS 3 Yrotation Xrotation Zrotation
     JOINT Neck
     {
      OFFSET 0.000000 14.453000 0.000000
      CHANNELS 3 Yrotation Xrotation Zrotation
      JOINT Head
      {
       OFFSET 0.000000 8.936500 -0.011300
       CHANNELS 3 Yrotation Xrotation Zrotation
       End Site
       {
        OFFSET 0.000000 17.073600 -0.006000
       }
      }
     }
     JOINT RightCollar
     {
      OFFSET -2.921100 9.558500 0.000000
      CHANNELS 3 Yrotation Xrotation Zrotation
      JOINT RightShoulder
      {
       OFFSET -13.519700 0.000000 0.000000
       CHANNELS 3 Yrotation Xrotation Zrotation
       JOINT RightElbow
       {
        OFFSET 0.000000 -29.696600 0.000000
        CHANNELS 3 Yrotation Xrotation Zrotation
        JOINT RightWrist
        {
         OFFSET 0.000000 -24.004700 0.000000
         CHANNELS 3 Yrotation Xrotation Zrotation
         End Site
         {
          OFFSET 0.000000 -17.728500 0.000000
         }
        }
       }
      }
     }
     JOINT LeftCollar
     {
      OFFSET 2.921100 9.558500 0.000000
      CHANNELS 3 Yrotation Xrotation Zrotation
      JOINT LeftShoulder
      {
       OFFSET 13.519700 0.000000 0.000000
       CHANNELS 3 Yrotation Xrotation Zrotation
       JOINT LeftElbow
       {
        OFFSET 0.000000 -29.696600 0.000000
        CHANNELS 3 Yrotation Xrotation Zrotation
        JOINT LeftWrist
        {
         OFFSET 0.000000 -24.004700 0.000000
         CHANNELS 3 Yrotation Xrotation Zrotation
         End Site
         {
          OFFSET 0.000000 -17.728500 0.000000
         }
        }
       }
      }
     }
    }
   }
  }
 }
 JOINT RightHip
 {
  OFFSET -7.771700 -0.012900 -0.001300
  CHANNELS 3 Yrotation Xrotation Zrotation
  JOINT RightKnee
  {
   OFFSET 0.000000 -40.869800 0.001200
   CHANNELS 3 Yrotation Xrotation Zrotation
   JOINT RightAnkle
   {
    OFFSET 0.000000 -39.717900 0.002100
    CHANNELS 3 Yrotation Xrotation Zrotation
    JOINT RightToe
    {
     OFFSET 0.000000 -4.965400 11.033500
     CHANNELS 3 Yrotation Xrotation Zrotation
     End Site
     {
      OFFSET 0.000000 -1.423100 5.872300
     }
    }
   }
  }
 }
 JOINT LeftHip
 {
  OFFSET 7.771700 -0.012900 -0.001300
  CHANNELS 3 Yrotation Xrotation Zrotation
  JOINT LeftKnee
  {
   OFFSET 0.000000 -40.869800 0.001200
   CHANNELS 3 Yrotation Xrotation Zrotation
   JOINT LeftAnkle
   {
    OFFSET 0.000000 -39.717900 0.002100
    CHANNELS 3 Yrotation Xrotation Zrotation
    JOINT LeftToe
    {
     OFFSET 0.000000 -4.965400 11.033500
     CHANNELS 3 Yrotation Xrotation Zrotation
     End Site
     {
      OFFSET 0.000000 -1.423100 5.872300
     }
    }
   }
  }
 }
}
MOTION
Frames: 9
Frame Time: 0.008333
-12.431828 58.270994 35.096916 169.315129 -40.996255 -1.990420 4.000178 21.583222 1.649246 0.518039 3.025103 0.025555 0.824167 4.937947 0.092324 3.284417 18.512647 0.620277 -12.380937 9.083713 1.045635 -24.614908 -17.518040 7.807193 3.414175 -0.053508 2.254823 20.917101 -27.096800 -13.618630 33.525849 -40.112650 -11.665566 10.219088 -5.400090 -33.616567 -7.821057 -1.123354 -0.357954 -79.670064 -11.432763 8.680312 5.996985 -45.538835 37.260952 -19.318601 -4.757009 29.073618 12.389793 -30.835847 2.529264 -4.025315 67.298113 1.900343 3.374270 3.152479 3.949084 -0.030752 0.143219 -0.017857 -9.645303 -32.852675 0.112309 30.968168 68.926531 29.589516 -24.219642 1.091395 -4.772543 -0.357355 -0.898792 -0.157960
-12.434603 58.269478 35.096946 169.346582 -41.024839 -2.031730 4.005900 21.587128 1.649251 0.519642 3.023453 0.023674 0.845391 4.909878 0.052430 3.300225 18.510763 0.613716 -12.395009 9.205999 1.146261 -24.638362 -17.330487 7.909320 3.407613 -0.034329 2.309103 20.934861 -27.113814 -13.629855 33.461592 -40.029025 -11.616532 10.222179 -5.415324 -33.623506 -7.807273 -1.139341 -0.356556 -79.660427 -11.375805 8.610335 6.227039 -45.657810 37.072973 -19.222475 -4.844515 29.003437 12.370103 -30.808227 2.555025 -4.069902 67.292896 1.863408 3.382421 3.153450 3.959718 -0.034737 0.141977 -0.018563 -9.656204 -32.825625 0.123439 30.975969 68.930106 29.608275 -24.221323 1.082431 -4.771438 -0.341641 -0.889599 -0.153460
-12.437617 58.265599 35.099958 169.348942 -41.031695 -2.054719 4.034290 21.568910 1.649482 0.521275 3.021822 0.021753 0.848003 4.907376 0.049259 3.312355 18.497903 0.588866 -12.401615 9.319690 1.226457 -24.657184 -17.126525 8.015027 3.405968 -0.024424 2.334329 20.949468 -27.138056 -13.635767 33.385863 -39.979744 -11.556012 10.255517 -5.407166 -33.653113 -7.812986 -1.122843 -0.321739 -79.592975 -11.414210 8.555942 6.364266 -45.743417 36.935998 -19.141025 -4.917374 28.942081 12.374597 -30.807843 2.570721 -4.093156 67.287586 1.852375 3.385718 3.159022 3.965350 -0.034381 0.142006 -0.018067 -9.646852 -32.819292 0.139410 30.985517 68.931450 29.630936 -24.222390 1.065283 -4.778423 -0.319000 -0.873193 -0.141867
-12.444126 58.263016 35.100816 169.367523 -41.049977 -2.064007 4.031631 21.576311 1.636678 0.533670 3.008738 0.004360 0.851005 4.905126 0.046317 3.317124 18.500440 0.591440 -12.402350 9.423052 1.284599 -24.671947 -16.902485 8.124300 3.410847 -0.046651 2.273826 20.916535 -27.161309 -13.558629 33.334896 -39.930877 -11.514167 10.270741 -5.430746 -33.661569 -7.812233 -1.133114 -0.325835 -79.551696 -11.418656 8.501910 6.501442 -45.835347 36.817808 -19.076670 -4.974541 28.892642 12.379099 -30.790835 2.559916 -4.102872 67.290137 1.852712 3.384307 3.156308 3.971242 -0.034350 0.142249 -0.017228 -9.644053 -32.803917 0.130567 31.024569 68.921647 29.664123 -24.241051 1.062880 -4.769175 -0.329315 -0.865349 -0.141080
-12.450257 58.260473 35.102016 169.388645 -41.066878 -2.076136 4.027722 21.582308 1.624982 0.548479 2.995125 -0.013024 0.854641 4.903141 0.043561 3.309934 18.517259 0.621261 -12.392921 9.518794 1.319384 -24.683597 -16.654513 8.238094 3.414264 -0.058473 2.234149 20.922744 -27.188149 -13.543034 33.296264 -39.842707 -11.476723 10.267101 -5.488924 -33.659796 -7.801060 -1.170361 -0.370146 -79.525709 -11.396789 8.443493 6.622776 -45.925762 36.722475 -19.026025 -5.016596 28.853138 12.380146 -30.775131 2.550889 -4.105140 67.291958 1.858748 3.381593 3.155753 3.979853 -0.035413 0.140869 -0.018705 -9.643537 -32.789319 0.123138 31.021591 68.919477 29.658785 -24.241125 1.060344 -4.763318 -0.313411 -0.857005 -0.138327
-12.455123 58.260328 35.100951 169.429838 -41.103415 -2.105280 4.024239 21.594667 1.608153 0.547887 3.000670 -0.006737 0.865045 4.895158 0.032020 3.342705 18.491476 0.573671 -12.406059 9.688527 1.436420 -24.690907 -16.381168 8.354793 3.376301 -0.034164 2.291965 20.908395 -27.201655 -13.506522 33.296870 -39.760219 -11.475778 10.265113 -5.539743 -33.643262 -7.843279 -1.126078 -0.294453 -79.497886 -11.414058 8.402439 6.706584 -46.001987 36.659020 -18.981583 -5.045774 28.826447 12.361353 -30.735416 2.554397 -4.110502 67.291510 1.859869 3.379958 3.153717 3.987747 -0.034640 0.138478 -0.018691 -9.642845 -32.754921 0.110688 30.995573 68.923094 29.642448 -24.246163 1.059240 -4.753653 -0.330503 -0.852904 -0.137954
-12.459173 58.258504 35.102259 169.449954 -41.123891 -2.127355 4.044492 21.590476 1.599383 0.549597 2.999190 -0.008249 0.869040 4.893368 0.028710 3.365257 18.480252 0.548641 -12.411452 9.851764 1.531331 -24.691930 -16.083282 8.469397 3.350526 -0.024030 2.325776 20.891660 -27.212992 -13.473029 33.349956 -39.619621 -11.503078 10.224549 -5.628347 -33.636958 -7.876620 -1.100445 -0.242149 -79.478961 -11.420522 8.364989 6.774971 -46.073300 36.611527 -18.944544 -5.066733 28.813326 12.351010 -30.716437 2.564990 -4.116144 67.288735 1.855751 3.378017 3.156186 3.996950 -0.032921 0.137546 -0.018343 -9.633754 -32.738290 0.107617 30.972101 68.929894 29.634225 -24.249607 1.056267 -4.749501 -0.311310 -0.849661 -0.137212
-12.462897 58.256491 35.104051 169.463425 -41.141913 -2.147377 4.068921 21.582800 1.593873 0.559614 2.992226 -0.019631 0.859322 4.904312 0.043344 3.381948 18.469966 0.526009 -12.409475 10.017024 1.610383 -24.685867 -15.763691 8.578164 3.338441 -0.021654 2.342015 20.939894 -27.248144 -13.524657 33.262533 -39.541473 -11.425648 10.237509 -5.653478 -33.618664 -7.887796 -1.138077 -0.279215 -79.478318 -11.322178 8.301084 6.848543 -46.151515 36.565328 -18.973492 -5.061013 28.799424 12.336503 -30.701063 2.584701 -4.119340 67.285196 1.843400 3.375166 3.159712 4.008835 -0.033900 0.136915 -0.018486 -9.626153 -32.723489 0.112129 30.949701 68.937825 29.623233 -24.259048 1.049969 -4.746876 -0.318442 -0.847898 -0.136098
-12.468298 58.253690 35.106529 169.464990 -41.153085 -2.150767 4.099651 21.569725 1.576502 0.547018 3.002813 -0.004145 0.854006 4.909983 0.051140 3.402916 18.448227 0.480578 -12.404058 10.192528 1.686823 -24.669736 -15.426707 8.677995 3.330716 -0.020171 2.356499 20.938847 -27.261317 -13.517796 33.267257 -39.466568 -11.420975 10.256329 -5.679570 -33.605328 -7.909770 -1.120184 -0.243605 -79.453950 -11.340239 8.256919 6.848635 -46.186120 36.572248 -18.986430 -5.054980 28.788803 12.345404 -30.693800 2.582561 -4.126240 67.285100 1.840155 3.374601 3.162004 4.015426 -0.033510 0.137852 -0.017118 -9.605198 -32.716548 0.112105 30.935372 68.944468 29.608248 -24.266064 1.047767 -4.730991 -0.321486 -0.841223 -0.136860
